<?xml version="1.0" standalone="no"?><!DOCTYPE svg PUBLIC "-//W3C//DTD SVG 1.1//EN" "http://www.w3.org/Graphics/SVG/1.1/DTD/svg11.dtd"><svg t="1735521314512" class="icon" viewBox="0 0 1024 1024" version="1.1" xmlns="http://www.w3.org/2000/svg" p-id="6009" xmlns:xlink="http://www.w3.org/1999/xlink" width="200" height="200"><path d="M362.666667 512m-320 0a320 320 0 1 0 640 0 320 320 0 1 0-640 0Z" fill="#61DAFB" p-id="6010"></path><path d="M365.269333 349.504c40.042667-32.938667 79.637333-45.824 108.16-29.354667 29.141333 16.810667 37.546667 58.986667 28.074667 111.701334 50.368 18.133333 82.709333 46.506667 82.709333 80.149333 0 33.664-32.341333 61.994667-82.709333 80.170667 9.472 52.693333 1.066667 94.869333-28.074667 111.68-29.141333 16.832-69.845333 3.008-110.762666-31.530667-40.917333 34.56-81.621333 48.362667-110.762667 31.530667-29.141333-16.810667-37.546667-58.986667-28.074667-111.701334-50.368-18.133333-82.709333-46.506667-82.709333-80.149333 0-33.664 32.341333-61.994667 82.709333-80.170667-9.472-52.693333-1.066667-94.869333 28.074667-111.68 29.141333-16.832 69.845333-3.008 110.762667 31.530667z m115.626667 249.237333l-1.152 0.32c-18.432 5.12-38.677333 9.002667-60.16 11.498667a396.330667 396.330667 0 0 1-40.896 47.189333c33.962667 28.629333 65.770667 40.597333 85.12 29.44 19.349333-11.178667 24.874667-44.714667 17.066667-88.448z m-236.458667 0l-0.746666 4.501334c-6.656 41.536-0.853333 73.152 17.834666 83.925333 19.349333 11.178667 51.157333-0.789333 85.12-29.418667a396.928 396.928 0 0 1-40.874666-47.168 398.314667 398.314667 0 0 1-61.333334-11.84zM362.666667 643.178667l4.266666-4.245334c7.744-7.872 15.509333-16.512 23.168-25.877333a519.637333 519.637333 0 0 1-54.869333 0c7.658667 9.365333 15.424 18.005333 23.189333 25.877333l4.245334 4.245334z m0-211.306667l-6.314667 0.042667a471.68 471.68 0 0 0-38.741333 2.090666A478.122667 478.122667 0 0 0 272.597333 512a476.672 476.672 0 0 0 45.013334 77.973333 473.813333 473.813333 0 0 0 90.090666 0c8.448-11.818667 16.618667-24.512 24.362667-37.909333l3.114667-5.504a471.68 471.68 0 0 0 17.557333-34.56c-6.037333-13.226667-12.928-26.645333-20.693333-40.064l-3.2-5.44a471.68 471.68 0 0 0-21.141334-32.512A476.16 476.16 0 0 0 362.666667 431.872z m-101.226667 106.88l-1.792 4.842667c-4.266667 11.690667-7.786667 23.061333-10.581333 33.984 12.352 3.456 25.685333 6.4 39.829333 8.704a506.496 506.496 0 0 1-27.456-47.509334z m202.453333 0.042667l-3.008 5.802666a514.346667 514.346667 0 0 1-24.426666 41.685334 368.938667 368.938667 0 0 0 39.808-8.704 370.730667 370.730667 0 0 0-12.373334-38.784z m33.024-85.802667l-0.746666 2.816c-4.757333 18.005333-11.370667 36.906667-19.690667 56.192 8.746667 20.288 15.616 40.170667 20.416 59.029333 41.792-15.146667 68.053333-36.693333 68.053333-59.029333s-26.261333-43.882667-68.053333-59.008z m-268.48 0l-1.877333 0.682667c-40.682667 15.082667-66.176 36.330667-66.176 58.325333 0 22.336 26.282667 43.904 68.053333 59.008 4.8-18.837333 11.648-38.72 20.416-59.008a396.821333 396.821333 0 0 1-20.416-59.029333z m134.229334 14.613333c21.802667 0 39.488 19.882667 39.488 44.394667 0 24.533333-17.685333 44.373333-39.488 44.373333s-39.488-19.84-39.488-44.373333 17.685333-44.373333 39.488-44.373333z m73.813333-29.888l3.52 5.525334a514.346667 514.346667 0 0 1 23.893333 42.026666c5.056-13.397333 9.173333-26.410667 12.373334-38.826666-12.352-3.477333-25.685333-6.421333-39.808-8.746667z m-147.605333 0l-3.264 0.533334a366.293333 366.293333 0 0 0-36.565334 8.170666c3.2 12.416 7.317333 25.429333 12.373334 38.784a539.989333 539.989333 0 0 1 27.456-47.488z m57.792-71.466666c-33.984-28.629333-65.792-40.597333-85.12-29.44-19.370667 11.178667-24.896 44.714667-17.109334 88.448a396.330667 396.330667 0 0 1 61.354667-11.818667c12.501333-16.853333 25.578667-32.021333 38.805333-45.162667z m117.12-29.44c-19.328-11.157333-51.136 0.810667-85.12 29.44 13.930667 13.589333 27.733333 29.44 40.896 47.168 21.973333 2.56 42.581333 6.570667 61.333333 11.84 7.786667-43.733333 2.261333-77.269333-17.088-88.426667zM358.4 385.066667c-7.744 7.872-15.530667 16.533333-23.189333 25.898666a501.525333 501.525333 0 0 1 54.912 0c-9.066667-11.093333-18.282667-21.184-27.456-30.144z" fill="#FFFFFF" p-id="6011"></path><path d="M661.333333 512m-320 0a320 320 0 1 0 640 0 320 320 0 1 0-640 0Z" fill="#36A774" p-id="6012"></path><path d="M715.008 367.829333l-53.696 92.117334-53.653333-92.117334H429.248L661.312 766.72 893.44 367.829333z" fill="#FFFFFF" p-id="6013"></path><path d="M715.008 367.829333l-53.696 92.117334-53.653333-92.117334H522.069333l139.242667 239.338667 139.264-239.36z" fill="#35495E" p-id="6014"></path></svg>